<?xml version="1.0" encoding="utf-8"?>
<!-- Generator: Adobe Illustrator 26.0.2, SVG Export Plug-In . SVG Version: 6.00 Build 0)  -->
<svg version="1.1" id="Layer_1" xmlns="http://www.w3.org/2000/svg" xmlns:xlink="http://www.w3.org/1999/xlink" x="0px" y="0px"
	 viewBox="0 0 235.56 368.53" style="enable-background:new 0 0 235.56 368.53;" xml:space="preserve">
<style type="text/css">
	.st0{fill:#19AF6A;}
	.st1{fill-rule:evenodd;clip-rule:evenodd;fill:#464545;}
	.st2{fill:#FFFFFF;}
	.st3{fill-rule:evenodd;clip-rule:evenodd;fill:#FFFFFF;}
</style>
<g>
	<path class="st0" d="M-2853.6,291.24c7.07-2.86,14.6-2.86,21.4-0.55c0.9-11.64,7.95-22.21,19.19-26.76
		c8.9-3.61,18.55-2.67,26.52,1.71c2.67-8.7,8.95-16.08,17.85-19.69c11.24-4.55,23.67-1.87,32.41,5.87
		c3.27-6.39,8.68-11.63,15.75-14.5c5.49-2.22,11.27-2.72,16.76-1.75c5.89-14.11,9.14-29.59,9.14-45.83
		c0-65.77-53.32-119.09-119.09-119.09c-65.77,0-119.09,53.32-119.09,119.09c0,47.92,28.31,89.23,69.12,108.12
		C-2860.83,295.09-2857.47,292.81-2853.6,291.24z"/>
	<g>
		<path class="st1" d="M-3129.21,123.05h10.39c0.52,0,0.96,0.44,0.96,0.96v103.97c0,0.53-0.43,0.96-0.96,0.96h-10.39
			c-0.53-0.01-0.96-0.43-0.96-0.96V124.01C-3130.17,123.49-3129.74,123.05-3129.21,123.05z"/>
		<path class="st1" d="M-3057.8,208.6v2.62c0,1.14-0.17,2.7-0.61,4.72c-0.35,1.92-1.4,3.93-3.05,5.85c-1.66,1.92-4.1,3.67-7.42,5.06
			c-3.32,1.4-7.86,2.09-13.7,2.09c-5.85,0-10.39-0.7-13.7-2.09s-5.76-3.06-7.42-5.06c-1.66-1.92-2.71-3.93-3.06-5.94
			c-0.35-2.01-0.61-3.49-0.61-4.63v-59.19c0-0.53,0.44-0.96,0.96-0.96h10.39c0.52,0,0.96,0.43,0.96,0.96v55.43
			c0,1.83,0.26,3.14,0.53,4.19c0.26,1.05,0.78,2.09,1.57,2.97c0.79,0.96,2.01,1.75,3.67,2.36c1.57,0.61,3.75,0.96,6.46,0.96
			c2.79,0,5.06-0.35,6.72-0.96c1.66-0.61,2.88-1.4,3.76-2.27c0.87-0.87,1.48-1.83,1.75-2.88c0.26-1.05,0.61-1.92,0.61-4.45v-55.34
			c0-0.53,0.44-0.96,0.96-0.96h10.39c0.52,0,0.96,0.43,0.96,0.96v56.57L-3057.8,208.6L-3057.8,208.6z"/>
		<path class="st1" d="M-3022.45,151.07h6.98c0.61,0,1.05,0.61,0.87,1.22l-2.36,9.08c-0.09,0.44-0.53,0.7-0.87,0.7h-4.89
			c-2.62,0-4.72,0.35-6.37,1.05c-1.57,0.7-2.88,1.48-3.75,2.44c-0.78,0.81-1.34,1.8-1.66,2.88c-0.26,1.05-0.35,2.01-0.35,2.88v56.74
			c0,0.53-0.43,0.96-0.96,0.96h-10.47c-0.53-0.01-0.96-0.43-0.96-0.96v-59.19c0-1.05,0.17-2.62,0.61-4.63
			c0.35-2.01,1.4-3.93,3.05-5.94c1.66-1.92,4.1-3.67,7.42-5.06C-3032.92,151.77-3028.3,151.07-3022.45,151.07z"/>
		<path class="st1" d="M-3146.49,156.05c-4.02-3.32-10.22-4.97-18.68-4.97c-4.37,0-8.12,0.52-11.17,1.4
			c-3.14,0.87-5.67,2.18-7.68,3.75c-2.09,1.57-3.58,3.49-4.45,5.59c-0.96,2.09-1.4,4.36-1.4,6.81v2.53
			c0.01,0.53,0.43,0.96,0.96,0.96h10.47c0.52,0,0.96-0.35,0.96-0.87c0.14-2.31,1.03-4.52,2.53-6.28c1.75-2.01,4.98-2.97,9.78-2.97
			c2.44,0,4.45,0.26,6.02,0.78c1.57,0.53,2.88,1.22,3.84,2.09c0.96,0.87,1.66,1.75,2.01,2.8c0.44,1.05,0.61,2.01,0.61,2.97v2.7
			c0,1.14-0.18,2.18-0.61,3.06c-0.43,0.79-0.87,1.57-1.48,2.27c-0.61,0.61-1.22,1.13-1.83,1.48c-0.61,0.35-1.13,0.61-1.48,0.79
			c-0.35,0.17-1.31,0.44-2.88,1.05c-1.57,0.52-3.32,1.22-5.41,1.92c-2.09,0.79-4.27,1.48-6.46,2.27c-2.27,0.79-4.19,1.4-5.94,2.01
			c-3.49,1.22-6.11,3.41-8.03,6.37c-1.83,2.97-2.79,6.29-2.79,9.96v6.81c0,1.66,0.35,3.58,0.96,5.67c0.61,2.01,1.83,3.93,3.67,5.68
			c1.83,1.75,4.37,3.23,7.51,4.36c3.14,1.14,7.25,1.75,12.4,1.75c5.06,0,9.25-0.61,12.4-1.75c3.14-1.22,5.67-2.62,7.5-4.36
			c1.83-1.66,3.06-3.58,3.67-5.67c0.61-2.01,0.96-3.93,0.96-5.67v-42.78C-3140.56,163.56-3142.57,159.37-3146.49,156.05z
			 M-3152.69,207.29c0,3.49-0.87,6.11-2.62,8.03c-1.75,1.83-5.06,2.79-9.86,2.79c-4.72,0-7.95-0.96-9.69-2.7
			c-1.75-1.83-2.62-4.54-2.62-8.21c0-1.83,0.35-3.32,1.04-4.54c0.7-1.22,1.49-2.18,2.36-2.97c1.01-0.81,2.13-1.49,3.31-2.01
			c1.48-0.61,3.14-1.13,4.89-1.75c1.48-0.43,3.06-1.05,4.72-1.66c1.66-0.61,3.23-1.14,4.71-1.66c0.7-0.26,1.4-0.53,2.18-1.05
			c0.78-0.48,1.32-1.28,1.48-2.18h0.09V207.29z"/>
		<path class="st1" d="M-2966.58,156.05c-4.02-3.32-10.22-4.97-18.68-4.97c-4.37,0-8.03,0.52-11.18,1.4
			c-3.14,0.87-5.67,2.18-7.68,3.75c-2.09,1.57-3.58,3.49-4.45,5.59c-0.96,2.09-1.4,4.36-1.4,6.81v2.53
			c0.01,0.53,0.43,0.95,0.96,0.96h10.47c0.53,0,0.96-0.35,0.96-0.87c0.14-2.31,1.03-4.52,2.53-6.28c1.75-2.01,4.97-2.97,9.78-2.97
			c2.44,0,4.45,0.26,6.02,0.78c1.57,0.53,2.88,1.22,3.84,2.09c0.96,0.87,1.66,1.75,2.01,2.8c0.43,1.05,0.61,2.01,0.61,2.97v2.7
			c0,1.14-0.17,2.18-0.61,3.06c-0.44,0.79-0.87,1.57-1.48,2.27c-0.61,0.61-1.22,1.13-1.83,1.48c-0.61,0.35-1.13,0.61-1.48,0.79
			c-0.35,0.17-1.31,0.44-2.88,1.05c-1.57,0.52-3.32,1.22-5.41,1.92c-2.09,0.79-4.28,1.48-6.46,2.27c-2.27,0.79-4.19,1.4-5.94,2.01
			c-3.49,1.22-6.11,3.41-8.03,6.37c-1.83,2.97-2.79,6.29-2.79,9.96v6.81c0,1.66,0.35,3.58,0.96,5.67c0.61,2.01,1.83,3.93,3.67,5.68
			c1.83,1.75,4.37,3.23,7.51,4.36c3.14,1.14,7.25,1.75,12.4,1.75c5.06,0,9.25-0.61,12.39-1.75c3.14-1.22,5.67-2.62,7.51-4.36
			c1.83-1.66,3.05-3.58,3.67-5.67c0.61-2.01,0.96-3.93,0.96-5.67v-42.78C-2960.64,163.56-2962.65,159.37-2966.58,156.05z
			 M-2972.78,207.29c0,3.49-0.87,6.11-2.62,8.03c-1.75,1.83-5.06,2.79-9.86,2.79c-4.72,0-7.95-0.96-9.69-2.7
			c-1.75-1.83-2.62-4.54-2.62-8.21c0-1.83,0.35-3.32,1.05-4.54c0.7-1.22,1.48-2.18,2.36-2.97c1.01-0.81,2.13-1.49,3.32-2.01
			c1.48-0.61,3.14-1.13,4.89-1.75c1.48-0.43,3.05-1.05,4.71-1.66c1.66-0.61,3.23-1.14,4.72-1.66c0.7-0.26,1.4-0.53,2.18-1.05
			c0.78-0.48,1.32-1.28,1.48-2.18h0.08V207.29z"/>
	</g>
	<g>
		<path class="st2" d="M-2897.93,178.84c0-1.43,0.14-2.84,0.42-4.22c0.28-1.38,0.72-2.7,1.31-3.94c0.6-1.24,1.37-2.4,2.31-3.46
			c0.94-1.06,2.09-1.98,3.43-2.75c1.34-0.77,2.89-1.37,4.64-1.81c1.75-0.44,3.74-0.66,5.97-0.66c2.05,0,3.99,0.16,5.82,0.49
			c1.83,0.33,3.43,0.87,4.81,1.61c1.37,0.75,2.46,1.73,3.27,2.96c0.81,1.22,1.21,2.72,1.21,4.49c0,0.56-0.1,1.17-0.31,1.84
			s-0.56,1.29-1.06,1.88c-0.5,0.59-1.16,1.08-1.99,1.48c-0.83,0.4-1.85,0.6-3.06,0.6c-1.29,0-2.38-0.17-3.27-0.51
			c-0.89-0.34-1.61-0.78-2.18-1.31c-0.57-0.54-0.98-1.14-1.22-1.81c-0.25-0.67-0.37-1.33-0.37-1.99c0-0.38,0.04-0.84,0.13-1.37
			c0.09-0.54,0.27-1.11,0.55-1.73c-0.84,0-1.53,0.04-2.08,0.12c-0.55,0.08-0.99,0.2-1.31,0.37c-0.33,0.17-0.56,0.37-0.7,0.61
			c-0.14,0.24-0.21,0.52-0.21,0.84c0,0.42,0.09,0.91,0.27,1.48c0.18,0.57,0.38,1.2,0.6,1.9c0.22,0.7,0.42,1.45,0.6,2.27
			c0.18,0.82,0.27,1.69,0.27,2.63h3.16c0.24,0,0.53,0.02,0.87,0.04s0.66,0.13,0.96,0.31c0.3,0.18,0.55,0.46,0.76,0.85
			s0.31,0.94,0.31,1.66c0,0.68-0.08,1.22-0.24,1.63c-0.16,0.41-0.36,0.72-0.61,0.93s-0.52,0.34-0.81,0.4
			c-0.29,0.06-0.56,0.09-0.82,0.09h-3.34v21.35c0,0.82,0.11,1.45,0.33,1.91c0.22,0.46,0.49,0.8,0.81,1.03
			c0.32,0.23,0.67,0.39,1.06,0.48c0.39,0.09,0.74,0.18,1.06,0.28s0.59,0.24,0.81,0.43c0.22,0.19,0.33,0.5,0.33,0.94
			c0,2.27-1.17,3.9-3.51,4.88s-5.73,1.48-10.17,1.48c-2.15,0-4.05-0.12-5.7-0.36s-3.04-0.61-4.18-1.12c-1.13-0.51-2-1.17-2.58-1.97
			c-0.59-0.81-0.88-1.78-0.88-2.91c0-0.44,0.11-0.75,0.33-0.94c0.22-0.19,0.49-0.33,0.81-0.43s0.67-0.19,1.04-0.27
			c0.38-0.08,0.73-0.23,1.04-0.46c0.32-0.23,0.59-0.56,0.81-0.99c0.22-0.43,0.33-1.05,0.33-1.87v-21.41h-1.46
			c-0.26,0-0.56-0.01-0.9-0.04c-0.34-0.03-0.66-0.14-0.96-0.34c-0.3-0.2-0.55-0.51-0.75-0.93s-0.3-1.02-0.3-1.79
			c0-0.72,0.1-1.27,0.31-1.66s0.46-0.67,0.76-0.85s0.62-0.28,0.96-0.31c0.34-0.03,0.63-0.04,0.87-0.04H-2897.93z"/>
		<path class="st2" d="M-2850.01,218.28c-2.37,0-4.54-0.28-6.52-0.84c-1.98-0.56-3.76-1.32-5.34-2.28c-1.58-0.96-2.97-2.1-4.17-3.42
			c-1.19-1.31-2.19-2.73-2.99-4.25c-0.8-1.52-1.39-3.11-1.79-4.76s-0.6-3.3-0.6-4.96c0-1.69,0.21-3.36,0.64-5s1.08-3.2,1.94-4.67
			c0.87-1.47,1.95-2.83,3.24-4.06s2.81-2.3,4.55-3.19c1.74-0.9,3.7-1.6,5.88-2.11c2.18-0.51,4.58-0.76,7.21-0.76
			c2.31,0,4.42,0.26,6.34,0.78c1.92,0.52,3.66,1.23,5.21,2.13c1.55,0.91,2.91,1.98,4.08,3.21c1.16,1.23,2.13,2.58,2.91,4.03
			c0.78,1.45,1.36,2.99,1.75,4.6c0.39,1.61,0.58,3.24,0.58,4.87c0,1.69-0.21,3.38-0.63,5.08c-0.42,1.69-1.05,3.3-1.9,4.84
			c-0.85,1.53-1.91,2.96-3.18,4.27c-1.27,1.31-2.76,2.45-4.46,3.42s-3.62,1.72-5.75,2.27
			C-2845.12,218.01-2847.46,218.28-2850.01,218.28z M-2848.66,210.64c0.66,0,1.21-0.19,1.66-0.58c0.45-0.39,0.81-0.95,1.09-1.69
			c0.28-0.74,0.48-1.63,0.6-2.67c0.12-1.04,0.18-2.21,0.18-3.51c0-1.13-0.01-2.33-0.03-3.6c-0.02-1.26-0.07-2.51-0.15-3.73
			c-0.08-1.22-0.21-2.39-0.39-3.51c-0.18-1.11-0.43-2.1-0.76-2.96c-0.33-0.86-0.74-1.53-1.24-2.03c-0.5-0.5-1.1-0.75-1.82-0.75
			c-0.7,0-1.29,0.19-1.78,0.58c-0.49,0.39-0.89,0.93-1.21,1.63c-0.32,0.7-0.55,1.53-0.7,2.51c-0.15,0.98-0.22,2.05-0.22,3.22
			c0,1.1,0.02,2.28,0.06,3.55c0.04,1.27,0.12,2.54,0.24,3.81c0.12,1.26,0.29,2.48,0.52,3.66c0.23,1.17,0.52,2.21,0.87,3.11
			c0.35,0.9,0.78,1.61,1.28,2.15C-2849.96,210.37-2849.36,210.64-2848.66,210.64z"/>
		<path class="st2" d="M-2801.85,218.28c-2.37,0-4.54-0.28-6.52-0.84c-1.98-0.56-3.76-1.32-5.34-2.28c-1.58-0.96-2.97-2.1-4.17-3.42
			c-1.19-1.31-2.19-2.73-2.99-4.25c-0.8-1.52-1.39-3.11-1.79-4.76s-0.6-3.3-0.6-4.96c0-1.69,0.21-3.36,0.64-5s1.08-3.2,1.94-4.67
			c0.87-1.47,1.95-2.83,3.24-4.06s2.81-2.3,4.55-3.19c1.74-0.9,3.7-1.6,5.88-2.11c2.18-0.51,4.58-0.76,7.21-0.76
			c2.31,0,4.42,0.26,6.34,0.78c1.92,0.52,3.66,1.23,5.21,2.13c1.55,0.91,2.91,1.98,4.08,3.21c1.16,1.23,2.13,2.58,2.91,4.03
			c0.78,1.45,1.36,2.99,1.75,4.6c0.39,1.61,0.58,3.24,0.58,4.87c0,1.69-0.21,3.38-0.63,5.08c-0.42,1.69-1.05,3.3-1.9,4.84
			c-0.85,1.53-1.91,2.96-3.18,4.27c-1.27,1.31-2.76,2.45-4.46,3.42s-3.62,1.72-5.75,2.27
			C-2796.96,218.01-2799.3,218.28-2801.85,218.28z M-2800.5,210.64c0.66,0,1.21-0.19,1.66-0.58c0.45-0.39,0.81-0.95,1.09-1.69
			c0.28-0.74,0.48-1.63,0.6-2.67c0.12-1.04,0.18-2.21,0.18-3.51c0-1.13-0.01-2.33-0.03-3.6c-0.02-1.26-0.07-2.51-0.15-3.73
			c-0.08-1.22-0.21-2.39-0.39-3.51c-0.18-1.11-0.43-2.1-0.76-2.96c-0.33-0.86-0.74-1.53-1.24-2.03c-0.5-0.5-1.1-0.75-1.82-0.75
			c-0.7,0-1.29,0.19-1.78,0.58c-0.49,0.39-0.89,0.93-1.21,1.63c-0.32,0.7-0.55,1.53-0.7,2.51c-0.15,0.98-0.22,2.05-0.22,3.22
			c0,1.1,0.02,2.28,0.06,3.55c0.04,1.27,0.12,2.54,0.24,3.81c0.12,1.26,0.29,2.48,0.52,3.66c0.23,1.17,0.52,2.21,0.87,3.11
			c0.35,0.9,0.78,1.61,1.28,2.15C-2801.8,210.37-2801.2,210.64-2800.5,210.64z"/>
		<path class="st2" d="M-2729.23,206.04c0,0.82,0.11,1.45,0.33,1.91c0.22,0.46,0.49,0.8,0.81,1.03c0.32,0.23,0.67,0.39,1.06,0.48
			c0.39,0.09,0.74,0.18,1.06,0.28c0.32,0.1,0.59,0.24,0.81,0.43c0.22,0.19,0.33,0.5,0.33,0.94c0,2.27-1.17,3.91-3.52,4.91
			c-2.35,1-5.74,1.51-10.18,1.51c-1.19,0-2.24-0.09-3.14-0.27c-0.9-0.18-1.67-0.43-2.31-0.76c-0.65-0.33-1.18-0.73-1.6-1.19
			s-0.76-0.99-1.02-1.57c-0.52,0.48-1.15,0.99-1.9,1.52c-0.75,0.54-1.65,1.03-2.72,1.48c-1.06,0.45-2.29,0.82-3.67,1.1
			c-1.38,0.29-2.96,0.43-4.73,0.43c-2.01,0-3.79-0.28-5.33-0.84c-1.54-0.56-2.88-1.32-4-2.28c-1.12-0.96-2.07-2.09-2.82-3.39
			c-0.76-1.29-1.36-2.68-1.82-4.15c-0.46-1.47-0.78-3-0.97-4.57c-0.19-1.57-0.28-3.12-0.28-4.66c0-1.57,0.11-3.16,0.34-4.78
			c0.23-1.61,0.61-3.17,1.13-4.69c0.53-1.51,1.2-2.94,2.03-4.27c0.83-1.33,1.83-2.49,3.02-3.48c1.18-0.99,2.57-1.77,4.15-2.34
			c1.58-0.58,3.38-0.87,5.39-0.87c1.41,0,2.7,0.1,3.85,0.31c1.15,0.21,2.19,0.48,3.12,0.82s1.74,0.73,2.45,1.16
			c0.71,0.44,1.32,0.88,1.84,1.31v-8.99c0-0.82-0.11-1.44-0.31-1.87c-0.21-0.43-0.48-0.76-0.81-0.99c-0.33-0.23-0.68-0.38-1.04-0.46
			c-0.37-0.08-0.72-0.17-1.04-0.27c-0.33-0.1-0.6-0.24-0.81-0.43c-0.21-0.19-0.31-0.5-0.31-0.94c0-1.13,0.29-2.1,0.88-2.91
			s1.45-1.47,2.58-2c1.13-0.53,2.53-0.91,4.18-1.15s3.54-0.36,5.67-0.36c2.15,0,3.85,0.11,5.09,0.33c1.24,0.22,2.19,0.59,2.84,1.12
			s1.06,1.24,1.24,2.13c0.18,0.9,0.27,2.02,0.27,3.37L-2729.23,206.04z M-2751.87,210.7c0.8,0,1.58-0.14,2.36-0.42
			c0.78-0.28,1.45-0.59,2.03-0.93c-0.04-0.52-0.06-1.04-0.06-1.57c0-0.53,0-1.07,0-1.63v-18.9c-0.68-0.4-1.42-0.77-2.24-1.12
			s-1.65-0.52-2.51-0.52c-0.92,0-1.67,0.21-2.25,0.63c-0.59,0.42-1.05,1.12-1.39,2.1c-0.34,0.99-0.57,2.31-0.7,3.97
			c-0.13,1.66-0.19,3.73-0.19,6.2c0,1.49,0.05,2.97,0.15,4.42c0.1,1.45,0.32,2.75,0.66,3.9s0.84,2.08,1.49,2.79
			C-2753.87,210.34-2752.98,210.7-2751.87,210.7z"/>
	</g>
</g>
<g>
	<g>
		<path class="st3" d="M-2109.21,123.05h10.39c0.52,0,0.96,0.44,0.96,0.96v103.97c0,0.53-0.43,0.96-0.96,0.96h-10.39
			c-0.53-0.01-0.96-0.43-0.96-0.96V124.01C-2110.17,123.49-2109.74,123.05-2109.21,123.05z"/>
		<path class="st3" d="M-2037.8,208.6v2.62c0,1.14-0.17,2.7-0.61,4.72c-0.35,1.92-1.4,3.93-3.05,5.85c-1.66,1.92-4.1,3.67-7.42,5.06
			c-3.32,1.4-7.86,2.09-13.7,2.09c-5.85,0-10.39-0.7-13.7-2.09s-5.76-3.06-7.42-5.06c-1.66-1.92-2.71-3.93-3.06-5.94
			c-0.35-2.01-0.61-3.49-0.61-4.63v-59.19c0-0.53,0.44-0.96,0.96-0.96h10.39c0.52,0,0.96,0.43,0.96,0.96v55.43
			c0,1.83,0.26,3.14,0.53,4.19c0.26,1.05,0.78,2.09,1.57,2.97c0.79,0.96,2.01,1.75,3.67,2.36c1.57,0.61,3.75,0.96,6.46,0.96
			c2.79,0,5.06-0.35,6.72-0.96c1.66-0.61,2.88-1.4,3.76-2.27c0.87-0.87,1.48-1.83,1.75-2.88c0.26-1.05,0.61-1.92,0.61-4.45v-55.34
			c0-0.53,0.44-0.96,0.96-0.96h10.39c0.52,0,0.96,0.43,0.96,0.96v56.57L-2037.8,208.6L-2037.8,208.6z"/>
		<path class="st3" d="M-2002.45,151.07h6.98c0.61,0,1.05,0.61,0.87,1.22l-2.36,9.08c-0.09,0.44-0.53,0.7-0.87,0.7h-4.89
			c-2.62,0-4.72,0.35-6.37,1.05c-1.57,0.7-2.88,1.48-3.75,2.44c-0.78,0.81-1.34,1.8-1.66,2.88c-0.26,1.05-0.35,2.01-0.35,2.88v56.74
			c0,0.53-0.43,0.96-0.96,0.96h-10.47c-0.53-0.01-0.96-0.43-0.96-0.96v-59.19c0-1.05,0.17-2.62,0.61-4.63
			c0.35-2.01,1.4-3.93,3.05-5.94c1.66-1.92,4.11-3.67,7.42-5.06C-2012.92,151.77-2008.3,151.07-2002.45,151.07z"/>
		<path class="st3" d="M-2126.49,156.05c-4.02-3.32-10.22-4.97-18.68-4.97c-4.37,0-8.12,0.52-11.17,1.4
			c-3.14,0.87-5.67,2.18-7.68,3.75c-2.09,1.57-3.58,3.49-4.45,5.59c-0.96,2.09-1.4,4.36-1.4,6.81v2.53
			c0.01,0.53,0.43,0.96,0.96,0.96h10.47c0.52,0,0.96-0.35,0.96-0.87c0.14-2.31,1.03-4.52,2.53-6.28c1.75-2.01,4.98-2.97,9.78-2.97
			c2.44,0,4.45,0.26,6.02,0.78c1.57,0.53,2.88,1.22,3.84,2.09c0.96,0.87,1.66,1.75,2.01,2.8c0.44,1.05,0.61,2.01,0.61,2.97v2.7
			c0,1.14-0.18,2.18-0.61,3.06c-0.43,0.79-0.87,1.57-1.48,2.27c-0.61,0.61-1.22,1.13-1.83,1.48c-0.61,0.35-1.13,0.61-1.48,0.79
			c-0.35,0.17-1.31,0.44-2.88,1.05c-1.57,0.52-3.32,1.22-5.41,1.92c-2.09,0.79-4.27,1.48-6.46,2.27c-2.27,0.79-4.19,1.4-5.94,2.01
			c-3.49,1.22-6.11,3.41-8.03,6.37c-1.83,2.97-2.79,6.29-2.79,9.96v6.81c0,1.66,0.35,3.58,0.96,5.67c0.61,2.01,1.83,3.93,3.67,5.68
			c1.83,1.75,4.37,3.23,7.51,4.36c3.14,1.14,7.25,1.75,12.4,1.75c5.06,0,9.25-0.61,12.4-1.75c3.14-1.22,5.67-2.62,7.5-4.36
			c1.83-1.66,3.06-3.58,3.67-5.67c0.61-2.01,0.96-3.93,0.96-5.67v-42.78C-2120.56,163.56-2122.57,159.37-2126.49,156.05z
			 M-2132.69,207.29c0,3.49-0.87,6.11-2.62,8.03c-1.75,1.83-5.06,2.79-9.86,2.79c-4.72,0-7.95-0.96-9.69-2.7
			c-1.75-1.83-2.62-4.54-2.62-8.21c0-1.83,0.35-3.32,1.04-4.54c0.7-1.22,1.49-2.18,2.36-2.97c1.01-0.81,2.13-1.49,3.31-2.01
			c1.48-0.61,3.14-1.13,4.89-1.75c1.48-0.43,3.06-1.05,4.72-1.66c1.66-0.61,3.23-1.14,4.71-1.66c0.7-0.26,1.4-0.53,2.18-1.05
			c0.78-0.48,1.32-1.28,1.48-2.18h0.09V207.29z"/>
		<path class="st3" d="M-1946.58,156.05c-4.02-3.32-10.22-4.97-18.68-4.97c-4.37,0-8.03,0.52-11.18,1.4
			c-3.14,0.87-5.67,2.18-7.68,3.75c-2.09,1.57-3.58,3.49-4.45,5.59c-0.96,2.09-1.4,4.36-1.4,6.81v2.53
			c0.01,0.53,0.43,0.95,0.96,0.96h10.47c0.53,0,0.96-0.35,0.96-0.87c0.14-2.31,1.03-4.52,2.53-6.28c1.75-2.01,4.97-2.97,9.78-2.97
			c2.44,0,4.45,0.26,6.02,0.78c1.57,0.53,2.88,1.22,3.84,2.09c0.96,0.87,1.66,1.75,2.01,2.8c0.43,1.05,0.61,2.01,0.61,2.97v2.7
			c0,1.14-0.17,2.18-0.61,3.06c-0.44,0.79-0.87,1.57-1.48,2.27c-0.61,0.61-1.22,1.13-1.83,1.48c-0.61,0.35-1.13,0.61-1.48,0.79
			c-0.35,0.17-1.31,0.44-2.88,1.05c-1.57,0.52-3.32,1.22-5.41,1.92c-2.09,0.79-4.28,1.48-6.46,2.27c-2.27,0.79-4.19,1.4-5.94,2.01
			c-3.49,1.22-6.11,3.41-8.03,6.37c-1.83,2.97-2.79,6.29-2.79,9.96v6.81c0,1.66,0.35,3.58,0.96,5.67c0.61,2.01,1.83,3.93,3.67,5.68
			c1.83,1.75,4.37,3.23,7.51,4.36c3.14,1.14,7.25,1.75,12.4,1.75c5.06,0,9.25-0.61,12.39-1.75c3.14-1.22,5.67-2.62,7.51-4.36
			c1.83-1.66,3.05-3.58,3.67-5.67c0.61-2.01,0.96-3.93,0.96-5.67v-42.78C-1940.64,163.56-1942.65,159.37-1946.58,156.05z
			 M-1952.78,207.29c0,3.49-0.87,6.11-2.62,8.03c-1.75,1.83-5.06,2.79-9.86,2.79c-4.72,0-7.95-0.96-9.69-2.7
			c-1.75-1.83-2.62-4.54-2.62-8.21c0-1.83,0.35-3.32,1.05-4.54c0.7-1.22,1.48-2.18,2.36-2.97c1.01-0.81,2.13-1.49,3.32-2.01
			c1.48-0.61,3.14-1.13,4.89-1.75c1.48-0.43,3.05-1.05,4.71-1.66c1.66-0.61,3.23-1.14,4.72-1.66c0.7-0.26,1.4-0.53,2.18-1.05
			c0.78-0.48,1.32-1.28,1.48-2.18h0.08V207.29z"/>
	</g>
	<g>
		<path class="st2" d="M-1825.32,194.86c-0.08-1.22-0.21-2.39-0.39-3.51c-0.18-1.11-0.43-2.1-0.76-2.96
			c-0.33-0.86-0.74-1.53-1.24-2.03c-0.5-0.5-1.1-0.75-1.82-0.75c-0.7,0-1.29,0.19-1.78,0.58c-0.49,0.39-0.89,0.93-1.21,1.63
			c-0.32,0.7-0.55,1.53-0.7,2.51c-0.15,0.98-0.22,2.05-0.22,3.22c0,1.1,0.02,2.28,0.06,3.55c0.04,1.27,0.12,2.54,0.24,3.81
			c0.12,1.26,0.29,2.48,0.52,3.66c0.23,1.17,0.52,2.21,0.87,3.11c0.35,0.9,0.78,1.61,1.28,2.15c0.51,0.54,1.11,0.81,1.81,0.81
			c0.66,0,1.21-0.19,1.66-0.58c0.45-0.39,0.81-0.95,1.09-1.69c0.28-0.74,0.48-1.63,0.6-2.67c0.12-1.04,0.18-2.21,0.18-3.51
			c0-1.13-0.01-2.33-0.03-3.6C-1825.19,197.32-1825.24,196.08-1825.32,194.86z"/>
		<path class="st2" d="M-1727.54,206.16v-18.9c-0.68-0.4-1.42-0.77-2.24-1.12s-1.65-0.52-2.51-0.52c-0.92,0-1.67,0.21-2.25,0.63
			c-0.59,0.42-1.05,1.12-1.39,2.1c-0.34,0.99-0.57,2.31-0.7,3.97c-0.13,1.66-0.19,3.73-0.19,6.2c0,1.49,0.05,2.97,0.15,4.42
			c0.1,1.45,0.32,2.75,0.66,3.9s0.84,2.08,1.49,2.79c0.66,0.72,1.54,1.07,2.66,1.07c0.8,0,1.58-0.14,2.36-0.42
			c0.78-0.28,1.45-0.59,2.03-0.93c-0.04-0.52-0.06-1.04-0.06-1.57C-1727.54,207.26-1727.54,206.71-1727.54,206.16z"/>
		<path class="st2" d="M-1777.16,194.86c-0.08-1.22-0.21-2.39-0.39-3.51c-0.18-1.11-0.43-2.1-0.76-2.96
			c-0.33-0.86-0.74-1.53-1.24-2.03c-0.5-0.5-1.1-0.75-1.82-0.75c-0.7,0-1.29,0.19-1.78,0.58c-0.49,0.39-0.89,0.93-1.21,1.63
			c-0.32,0.7-0.55,1.53-0.7,2.51c-0.15,0.98-0.22,2.05-0.22,3.22c0,1.1,0.02,2.28,0.06,3.55c0.04,1.27,0.12,2.54,0.24,3.81
			c0.12,1.26,0.29,2.48,0.52,3.66c0.23,1.17,0.52,2.21,0.87,3.11c0.35,0.9,0.78,1.61,1.28,2.15c0.51,0.54,1.11,0.81,1.81,0.81
			c0.66,0,1.21-0.19,1.66-0.58c0.45-0.39,0.81-0.95,1.09-1.69c0.28-0.74,0.48-1.63,0.6-2.67c0.12-1.04,0.18-2.21,0.18-3.51
			c0-1.13-0.01-2.33-0.03-3.6C-1777.03,197.32-1777.08,196.08-1777.16,194.86z"/>
		<path class="st2" d="M-1793.66,70.66c-65.77,0-119.09,53.32-119.09,119.09c0,47.92,28.31,89.23,69.12,108.12
			c2.8-2.79,6.16-5.07,10.02-6.63c7.07-2.86,14.6-2.86,21.4-0.55c0.9-11.64,7.95-22.21,19.19-26.76c8.9-3.61,18.55-2.67,26.52,1.71
			c2.67-8.7,8.95-16.08,17.85-19.69c11.24-4.55,23.67-1.87,32.41,5.87c3.27-6.39,8.68-11.63,15.75-14.5
			c5.49-2.22,11.27-2.72,16.76-1.75c5.89-14.11,9.14-29.59,9.14-45.83C-1674.57,123.98-1727.88,70.66-1793.66,70.66z
			 M-1854.25,183.33c-0.16,0.41-0.36,0.72-0.61,0.93s-0.52,0.34-0.81,0.4c-0.29,0.06-0.56,0.09-0.82,0.09h-3.34v21.35
			c0,0.82,0.11,1.45,0.33,1.91c0.22,0.46,0.49,0.8,0.81,1.03c0.32,0.23,0.67,0.39,1.06,0.48c0.39,0.09,0.74,0.18,1.06,0.28
			s0.59,0.24,0.81,0.43c0.22,0.19,0.33,0.5,0.33,0.94c0,2.27-1.17,3.9-3.51,4.88s-5.73,1.48-10.17,1.48c-2.15,0-4.05-0.12-5.7-0.36
			s-3.04-0.61-4.18-1.12c-1.13-0.51-2-1.17-2.58-1.97c-0.59-0.81-0.88-1.78-0.88-2.91c0-0.44,0.11-0.75,0.33-0.94
			c0.22-0.19,0.49-0.33,0.81-0.43s0.67-0.19,1.04-0.27c0.38-0.08,0.73-0.23,1.04-0.46c0.32-0.23,0.59-0.56,0.81-0.99
			c0.22-0.43,0.33-1.05,0.33-1.87v-21.41h-1.46c-0.26,0-0.56-0.01-0.9-0.04c-0.34-0.03-0.66-0.14-0.96-0.34
			c-0.3-0.2-0.55-0.51-0.75-0.93s-0.3-1.02-0.3-1.79c0-0.72,0.1-1.27,0.31-1.66s0.46-0.67,0.76-0.85s0.62-0.28,0.96-0.31
			c0.34-0.03,0.63-0.04,0.87-0.04h1.64c0-1.43,0.14-2.84,0.42-4.22c0.28-1.38,0.72-2.7,1.31-3.94c0.6-1.24,1.37-2.4,2.31-3.46
			c0.94-1.06,2.09-1.98,3.43-2.75c1.34-0.77,2.89-1.37,4.64-1.81c1.75-0.44,3.74-0.66,5.97-0.66c2.05,0,3.99,0.16,5.82,0.49
			c1.83,0.33,3.43,0.87,4.81,1.61c1.37,0.75,2.46,1.73,3.27,2.96c0.81,1.22,1.21,2.72,1.21,4.49c0,0.56-0.1,1.17-0.31,1.84
			s-0.56,1.29-1.06,1.88c-0.5,0.59-1.16,1.08-1.99,1.48c-0.83,0.4-1.85,0.6-3.06,0.6c-1.29,0-2.38-0.17-3.27-0.51
			c-0.89-0.34-1.61-0.78-2.18-1.31c-0.57-0.54-0.98-1.14-1.22-1.81c-0.25-0.67-0.37-1.33-0.37-1.99c0-0.38,0.04-0.84,0.13-1.37
			c0.09-0.54,0.27-1.11,0.55-1.73c-0.84,0-1.53,0.04-2.08,0.12c-0.55,0.08-0.99,0.2-1.31,0.37c-0.33,0.17-0.56,0.37-0.7,0.61
			c-0.14,0.24-0.21,0.52-0.21,0.84c0,0.42,0.09,0.91,0.27,1.48c0.18,0.57,0.38,1.2,0.6,1.9c0.22,0.7,0.42,1.45,0.6,2.27
			c0.18,0.82,0.27,1.69,0.27,2.63h3.16c0.24,0,0.53,0.02,0.87,0.04s0.66,0.13,0.96,0.31c0.3,0.18,0.55,0.46,0.76,0.85
			s0.31,0.94,0.31,1.66C-1854.01,182.38-1854.09,182.92-1854.25,183.33z M-1807.7,202.66c-0.42,1.69-1.05,3.3-1.9,4.84
			c-0.85,1.53-1.91,2.96-3.18,4.27c-1.27,1.31-2.76,2.45-4.46,3.42s-3.62,1.72-5.75,2.27c-2.13,0.55-4.47,0.82-7.02,0.82
			c-2.37,0-4.54-0.28-6.52-0.84c-1.98-0.56-3.76-1.32-5.34-2.28c-1.58-0.96-2.97-2.1-4.17-3.42c-1.19-1.31-2.19-2.73-2.99-4.25
			c-0.8-1.52-1.39-3.11-1.79-4.76s-0.6-3.3-0.6-4.96c0-1.69,0.21-3.36,0.64-5s1.08-3.2,1.94-4.67c0.87-1.47,1.95-2.83,3.24-4.06
			s2.81-2.3,4.55-3.19c1.74-0.9,3.7-1.6,5.88-2.11c2.18-0.51,4.58-0.76,7.21-0.76c2.31,0,4.42,0.26,6.34,0.78
			c1.92,0.52,3.66,1.23,5.21,2.13c1.55,0.91,2.91,1.98,4.08,3.21c1.16,1.23,2.13,2.58,2.91,4.03c0.78,1.45,1.36,2.99,1.75,4.6
			c0.39,1.61,0.58,3.24,0.58,4.87C-1807.08,199.28-1807.29,200.97-1807.7,202.66z M-1759.54,202.66c-0.42,1.69-1.05,3.3-1.9,4.84
			c-0.85,1.53-1.91,2.96-3.18,4.27c-1.27,1.31-2.76,2.45-4.46,3.42s-3.62,1.72-5.75,2.27c-2.13,0.55-4.47,0.82-7.02,0.82
			c-2.37,0-4.54-0.28-6.52-0.84c-1.98-0.56-3.76-1.32-5.34-2.28c-1.58-0.96-2.97-2.1-4.17-3.42c-1.19-1.31-2.19-2.73-2.99-4.25
			c-0.8-1.52-1.39-3.11-1.79-4.76s-0.6-3.3-0.6-4.96c0-1.69,0.21-3.36,0.64-5s1.08-3.2,1.94-4.67c0.87-1.47,1.95-2.83,3.24-4.06
			s2.81-2.3,4.55-3.19c1.74-0.9,3.7-1.6,5.88-2.11c2.18-0.51,4.58-0.76,7.21-0.76c2.31,0,4.42,0.26,6.34,0.78
			c1.92,0.52,3.66,1.23,5.21,2.13c1.55,0.91,2.91,1.98,4.08,3.21c1.16,1.23,2.13,2.58,2.91,4.03c0.78,1.45,1.36,2.99,1.75,4.6
			c0.39,1.61,0.58,3.24,0.58,4.87C-1758.92,199.28-1759.12,200.97-1759.54,202.66z M-1708.37,216.03c-2.35,1-5.74,1.51-10.18,1.51
			c-1.19,0-2.24-0.09-3.14-0.27c-0.9-0.18-1.67-0.43-2.31-0.76c-0.65-0.33-1.18-0.73-1.6-1.19s-0.76-0.99-1.02-1.57
			c-0.52,0.48-1.15,0.99-1.9,1.52c-0.75,0.54-1.65,1.03-2.72,1.48c-1.06,0.45-2.29,0.82-3.67,1.1c-1.38,0.29-2.96,0.43-4.73,0.43
			c-2.01,0-3.79-0.28-5.33-0.84c-1.54-0.56-2.88-1.32-4-2.28c-1.12-0.96-2.07-2.09-2.82-3.39c-0.76-1.29-1.36-2.68-1.82-4.15
			c-0.46-1.47-0.78-3-0.97-4.57c-0.19-1.57-0.28-3.12-0.28-4.66c0-1.57,0.11-3.16,0.34-4.78c0.23-1.61,0.61-3.17,1.13-4.69
			c0.53-1.51,1.2-2.94,2.03-4.27c0.83-1.33,1.83-2.49,3.02-3.48c1.18-0.99,2.57-1.77,4.15-2.34c1.58-0.58,3.38-0.87,5.39-0.87
			c1.41,0,2.7,0.1,3.85,0.31c1.15,0.21,2.19,0.48,3.12,0.82s1.74,0.73,2.45,1.16c0.71,0.44,1.32,0.88,1.84,1.31v-8.99
			c0-0.82-0.11-1.44-0.31-1.87c-0.21-0.43-0.48-0.76-0.81-0.99c-0.33-0.23-0.68-0.38-1.04-0.46c-0.37-0.08-0.72-0.17-1.04-0.27
			c-0.33-0.1-0.6-0.24-0.81-0.43c-0.21-0.19-0.31-0.5-0.31-0.94c0-1.13,0.29-2.1,0.88-2.91s1.45-1.47,2.58-2
			c1.13-0.53,2.53-0.91,4.18-1.15s3.54-0.36,5.67-0.36c2.15,0,3.85,0.11,5.09,0.33c1.24,0.22,2.19,0.59,2.84,1.12
			s1.06,1.24,1.24,2.13c0.18,0.9,0.27,2.02,0.27,3.37l-0.12,37.86c0,0.82,0.11,1.45,0.33,1.91c0.22,0.46,0.49,0.8,0.81,1.03
			c0.32,0.23,0.67,0.39,1.06,0.48c0.39,0.09,0.74,0.18,1.06,0.28c0.32,0.1,0.59,0.24,0.81,0.43c0.22,0.19,0.33,0.5,0.33,0.94
			C-1704.84,213.38-1706.02,215.02-1708.37,216.03z"/>
	</g>
</g>
<g>
	<g>
		<path class="st3" d="M60.67,166.09h10.39c0.52,0,0.96,0.44,0.96,0.96v103.97c0,0.53-0.43,0.96-0.96,0.96H60.67
			c-0.53-0.01-0.96-0.43-0.96-0.96V167.05C59.71,166.53,60.14,166.09,60.67,166.09z"/>
		<path class="st3" d="M132.08,251.64v2.62c0,1.14-0.17,2.7-0.61,4.72c-0.35,1.92-1.4,3.93-3.05,5.85c-1.66,1.92-4.1,3.67-7.42,5.06
			c-3.32,1.4-7.86,2.09-13.7,2.09c-5.85,0-10.39-0.7-13.7-2.09s-5.76-3.06-7.42-5.06c-1.66-1.92-2.71-3.93-3.06-5.94
			c-0.35-2.01-0.61-3.49-0.61-4.63v-59.19c0-0.53,0.44-0.96,0.96-0.96h10.39c0.52,0,0.96,0.43,0.96,0.96v55.43
			c0,1.83,0.26,3.14,0.53,4.19c0.26,1.05,0.78,2.09,1.57,2.97c0.79,0.96,2.01,1.75,3.67,2.36c1.57,0.61,3.75,0.96,6.46,0.96
			c2.79,0,5.06-0.35,6.72-0.96c1.66-0.61,2.88-1.4,3.76-2.27c0.87-0.87,1.48-1.83,1.75-2.88c0.26-1.05,0.61-1.92,0.61-4.45v-55.34
			c0-0.53,0.44-0.96,0.96-0.96h10.39c0.52,0,0.96,0.43,0.96,0.96v56.57L132.08,251.64L132.08,251.64z"/>
		<path class="st3" d="M167.43,194.12h6.98c0.61,0,1.05,0.61,0.87,1.22l-2.36,9.08c-0.09,0.44-0.53,0.7-0.87,0.7h-4.89
			c-2.62,0-4.72,0.35-6.37,1.05c-1.57,0.7-2.88,1.48-3.75,2.44c-0.78,0.81-1.34,1.8-1.66,2.88c-0.26,1.05-0.35,2.01-0.35,2.88v56.74
			c0,0.53-0.43,0.96-0.96,0.96H143.6c-0.53-0.01-0.96-0.43-0.96-0.96v-59.19c0-1.05,0.17-2.62,0.61-4.63
			c0.35-2.01,1.4-3.93,3.05-5.94c1.66-1.92,4.11-3.67,7.42-5.06C156.96,194.81,161.58,194.12,167.43,194.12z"/>
		<path class="st3" d="M43.39,199.09c-4.02-3.32-10.22-4.97-18.68-4.97c-4.37,0-8.12,0.52-11.17,1.4c-3.14,0.87-5.67,2.18-7.68,3.75
			c-2.09,1.57-3.58,3.49-4.45,5.59c-0.96,2.09-1.4,4.36-1.4,6.81v2.53c0.01,0.53,0.43,0.96,0.96,0.96h10.47
			c0.52,0,0.96-0.35,0.96-0.87c0.14-2.31,1.03-4.52,2.53-6.28c1.75-2.01,4.98-2.97,9.78-2.97c2.44,0,4.45,0.26,6.02,0.78
			c1.57,0.53,2.88,1.22,3.84,2.09c0.96,0.87,1.66,1.75,2.01,2.8c0.44,1.05,0.61,2.01,0.61,2.97v2.71c0,1.14-0.18,2.18-0.61,3.06
			c-0.43,0.79-0.87,1.57-1.48,2.27c-0.61,0.61-1.22,1.13-1.83,1.48c-0.61,0.35-1.13,0.61-1.48,0.79c-0.35,0.17-1.31,0.44-2.88,1.05
			c-1.57,0.52-3.32,1.22-5.41,1.92c-2.09,0.79-4.27,1.48-6.46,2.27c-2.27,0.79-4.19,1.4-5.94,2.01c-3.49,1.22-6.11,3.41-8.03,6.37
			c-1.83,2.97-2.79,6.29-2.79,9.96v6.81c0,1.66,0.35,3.58,0.96,5.67c0.61,2.01,1.83,3.93,3.67,5.68c1.83,1.75,4.37,3.23,7.51,4.36
			s7.25,1.75,12.4,1.75c5.06,0,9.25-0.61,12.4-1.75c3.14-1.22,5.67-2.62,7.5-4.36c1.83-1.66,3.06-3.58,3.67-5.67
			c0.61-2.01,0.96-3.93,0.96-5.67v-42.78C49.32,206.6,47.31,202.41,43.39,199.09z M37.19,250.33c0,3.49-0.87,6.11-2.62,8.03
			c-1.75,1.83-5.06,2.79-9.86,2.79c-4.72,0-7.95-0.96-9.69-2.7c-1.75-1.83-2.62-4.54-2.62-8.21c0-1.83,0.35-3.32,1.04-4.54
			c0.7-1.22,1.49-2.18,2.36-2.97c1.01-0.81,2.13-1.49,3.32-2.01c1.48-0.61,3.14-1.13,4.89-1.75c1.48-0.43,3.06-1.05,4.72-1.66
			c1.66-0.61,3.23-1.14,4.71-1.66c0.7-0.26,1.4-0.53,2.18-1.05c0.78-0.48,1.32-1.28,1.48-2.18h0.09V250.33z"/>
		<path class="st3" d="M223.3,199.09c-4.02-3.32-10.22-4.97-18.68-4.97c-4.37,0-8.03,0.52-11.18,1.4c-3.14,0.87-5.67,2.18-7.68,3.75
			c-2.09,1.57-3.58,3.49-4.45,5.59c-0.96,2.09-1.4,4.36-1.4,6.81v2.53c0.01,0.53,0.43,0.95,0.96,0.96h10.47
			c0.53,0,0.96-0.35,0.96-0.87c0.14-2.31,1.03-4.52,2.53-6.28c1.75-2.01,4.97-2.97,9.78-2.97c2.44,0,4.45,0.26,6.02,0.78
			c1.57,0.53,2.88,1.22,3.84,2.09c0.96,0.87,1.66,1.75,2.01,2.8c0.43,1.05,0.61,2.01,0.61,2.97v2.71c0,1.14-0.17,2.18-0.61,3.06
			c-0.44,0.79-0.87,1.57-1.48,2.27c-0.61,0.61-1.22,1.13-1.83,1.48c-0.61,0.35-1.13,0.61-1.48,0.79c-0.35,0.17-1.31,0.44-2.88,1.05
			c-1.57,0.52-3.32,1.22-5.41,1.92c-2.09,0.79-4.28,1.48-6.46,2.27c-2.27,0.79-4.19,1.4-5.94,2.01c-3.49,1.22-6.11,3.41-8.03,6.37
			c-1.83,2.97-2.79,6.29-2.79,9.96v6.81c0,1.66,0.35,3.58,0.96,5.67c0.61,2.01,1.83,3.93,3.67,5.68c1.83,1.75,4.37,3.23,7.51,4.36
			s7.25,1.75,12.4,1.75c5.06,0,9.25-0.61,12.39-1.75c3.14-1.22,5.67-2.62,7.51-4.36c1.83-1.66,3.05-3.58,3.67-5.67
			c0.61-2.01,0.96-3.93,0.96-5.67v-42.78C229.24,206.6,227.23,202.41,223.3,199.09z M217.1,250.33c0,3.49-0.87,6.11-2.62,8.03
			c-1.75,1.83-5.06,2.79-9.86,2.79c-4.72,0-7.95-0.96-9.69-2.7c-1.75-1.83-2.62-4.54-2.62-8.21c0-1.83,0.35-3.32,1.05-4.54
			c0.7-1.22,1.48-2.18,2.36-2.97c1.01-0.81,2.13-1.49,3.32-2.01c1.48-0.61,3.14-1.13,4.89-1.75c1.48-0.43,3.05-1.05,4.71-1.66
			c1.66-0.61,3.23-1.14,4.72-1.66c0.7-0.26,1.4-0.53,2.18-1.05c0.78-0.48,1.32-1.28,1.48-2.18h0.08V250.33z"/>
	</g>
	<g>
		<path class="st2" d="M6.02,316.22c0-1.9,0.18-3.77,0.55-5.6c0.37-1.83,0.95-3.58,1.74-5.23c0.79-1.65,1.81-3.18,3.07-4.59
			c1.25-1.41,2.77-2.63,4.55-3.64c1.78-1.02,3.83-1.82,6.16-2.4c2.32-0.58,4.96-0.87,7.92-0.87c2.72,0,5.29,0.22,7.72,0.65
			c2.43,0.44,4.55,1.15,6.38,2.14c1.82,0.99,3.27,2.3,4.34,3.92c1.07,1.62,1.6,3.61,1.6,5.96c0,0.74-0.14,1.55-0.42,2.44
			c-0.28,0.88-0.75,1.72-1.41,2.49c-0.66,0.78-1.54,1.43-2.63,1.96c-1.1,0.53-2.45,0.79-4.06,0.79c-1.72,0-3.16-0.22-4.33-0.67
			c-1.18-0.45-2.14-1.03-2.89-1.74c-0.75-0.71-1.29-1.51-1.62-2.4c-0.33-0.88-0.49-1.76-0.49-2.63c0-0.5,0.06-1.11,0.18-1.82
			c0.12-0.71,0.36-1.48,0.73-2.3c-1.11,0-2.03,0.05-2.75,0.16c-0.73,0.11-1.31,0.27-1.74,0.49c-0.44,0.22-0.75,0.49-0.93,0.81
			c-0.19,0.32-0.28,0.69-0.28,1.11c0,0.55,0.12,1.21,0.36,1.96c0.24,0.75,0.5,1.59,0.79,2.51c0.29,0.92,0.55,1.93,0.79,3.01
			c0.24,1.08,0.36,2.24,0.36,3.48h4.2c0.32,0,0.7,0.02,1.15,0.06c0.45,0.04,0.87,0.18,1.27,0.42c0.39,0.24,0.73,0.61,1.01,1.13
			c0.28,0.51,0.42,1.25,0.42,2.2c0,0.9-0.1,1.62-0.32,2.16c-0.21,0.54-0.48,0.95-0.81,1.23s-0.69,0.46-1.07,0.53
			c-0.38,0.08-0.75,0.12-1.09,0.12h-4.44v28.31c0,1.08,0.15,1.93,0.44,2.53c0.29,0.61,0.65,1.06,1.07,1.36
			c0.42,0.3,0.89,0.52,1.41,0.63c0.52,0.12,0.98,0.24,1.41,0.38c0.42,0.13,0.78,0.32,1.07,0.57c0.29,0.25,0.44,0.67,0.44,1.25
			c0,3.01-1.55,5.17-4.65,6.47c-3.1,1.31-7.6,1.96-13.48,1.96c-2.85,0-5.37-0.16-7.56-0.48c-2.19-0.32-4.04-0.81-5.54-1.48
			c-1.5-0.67-2.65-1.54-3.43-2.61C0.39,361.9,0,360.61,0,359.11c0-0.58,0.15-1,0.44-1.25c0.29-0.25,0.65-0.44,1.07-0.57
			c0.42-0.13,0.88-0.25,1.39-0.36c0.5-0.1,0.96-0.31,1.39-0.61c0.42-0.3,0.78-0.74,1.07-1.31c0.29-0.57,0.44-1.39,0.44-2.47v-28.39
			H3.84c-0.34,0-0.74-0.02-1.19-0.06c-0.45-0.04-0.87-0.19-1.27-0.46c-0.39-0.26-0.73-0.67-0.99-1.23S0,321.06,0,320.03
			c0-0.95,0.14-1.68,0.42-2.2c0.28-0.51,0.61-0.89,1.01-1.13s0.82-0.38,1.27-0.42c0.45-0.04,0.83-0.06,1.15-0.06H6.02z"/>
		<path class="st2" d="M69.57,368.53c-3.14,0-6.03-0.37-8.65-1.11c-2.63-0.74-4.99-1.75-7.09-3.03c-2.1-1.28-3.94-2.79-5.52-4.53
			c-1.58-1.74-2.9-3.62-3.96-5.64c-1.06-2.02-1.85-4.12-2.38-6.31c-0.53-2.19-0.79-4.38-0.79-6.57c0-2.24,0.28-4.45,0.85-6.63
			s1.43-4.24,2.57-6.2c1.15-1.95,2.58-3.75,4.3-5.38s3.73-3.05,6.04-4.24c2.31-1.19,4.91-2.12,7.8-2.79
			c2.89-0.67,6.08-1.01,9.56-1.01c3.06,0,5.87,0.34,8.41,1.03c2.55,0.69,4.85,1.63,6.91,2.83c2.06,1.2,3.86,2.62,5.41,4.26
			c1.54,1.64,2.83,3.42,3.86,5.35c1.03,1.93,1.8,3.96,2.32,6.1c0.52,2.14,0.77,4.29,0.77,6.45c0,2.24-0.28,4.49-0.83,6.73
			c-0.55,2.24-1.39,4.38-2.51,6.41c-1.12,2.03-2.53,3.92-4.22,5.66c-1.69,1.74-3.66,3.25-5.92,4.53c-2.26,1.28-4.8,2.28-7.62,3.01
			C76.05,368.17,72.95,368.53,69.57,368.53z M71.35,358.39c0.87,0,1.6-0.26,2.2-0.77c0.59-0.52,1.07-1.26,1.45-2.24
			c0.37-0.98,0.63-2.16,0.79-3.54c0.16-1.39,0.24-2.94,0.24-4.65c0-1.5-0.01-3.09-0.04-4.77c-0.03-1.68-0.09-3.33-0.2-4.95
			c-0.1-1.62-0.28-3.17-0.51-4.65c-0.24-1.48-0.57-2.78-1.01-3.92c-0.44-1.13-0.98-2.03-1.64-2.69c-0.66-0.66-1.46-0.99-2.42-0.99
			c-0.92,0-1.71,0.26-2.36,0.77c-0.65,0.51-1.18,1.23-1.6,2.16c-0.42,0.92-0.73,2.03-0.93,3.33c-0.2,1.29-0.3,2.72-0.3,4.28
			c0,1.45,0.03,3.02,0.08,4.71c0.05,1.69,0.16,3.37,0.32,5.05c0.16,1.68,0.39,3.29,0.69,4.85c0.3,1.56,0.69,2.93,1.15,4.12
			c0.46,1.19,1.03,2.14,1.7,2.85C69.63,358.04,70.43,358.39,71.35,358.39z"/>
		<path class="st2" d="M133.44,368.53c-3.14,0-6.03-0.37-8.65-1.11c-2.63-0.74-4.99-1.75-7.09-3.03c-2.1-1.28-3.94-2.79-5.52-4.53
			c-1.58-1.74-2.9-3.62-3.96-5.64c-1.06-2.02-1.85-4.12-2.38-6.31c-0.53-2.19-0.79-4.38-0.79-6.57c0-2.24,0.28-4.45,0.85-6.63
			c0.57-2.18,1.43-4.24,2.57-6.2c1.15-1.95,2.58-3.75,4.3-5.38c1.72-1.64,3.73-3.05,6.04-4.24c2.31-1.19,4.91-2.12,7.8-2.79
			c2.89-0.67,6.08-1.01,9.56-1.01c3.06,0,5.87,0.34,8.41,1.03c2.55,0.69,4.85,1.63,6.91,2.83c2.06,1.2,3.86,2.62,5.41,4.26
			c1.54,1.64,2.83,3.42,3.86,5.35c1.03,1.93,1.8,3.96,2.32,6.1c0.52,2.14,0.77,4.29,0.77,6.45c0,2.24-0.28,4.49-0.83,6.73
			c-0.55,2.24-1.39,4.38-2.51,6.41c-1.12,2.03-2.53,3.92-4.22,5.66c-1.69,1.74-3.66,3.25-5.92,4.53c-2.26,1.28-4.8,2.28-7.62,3.01
			C139.92,368.17,136.82,368.53,133.44,368.53z M135.22,358.39c0.87,0,1.6-0.26,2.2-0.77c0.59-0.52,1.07-1.26,1.45-2.24
			c0.37-0.98,0.63-2.16,0.79-3.54c0.16-1.39,0.24-2.94,0.24-4.65c0-1.5-0.01-3.09-0.04-4.77c-0.03-1.68-0.09-3.33-0.2-4.95
			c-0.1-1.62-0.28-3.17-0.51-4.65c-0.24-1.48-0.57-2.78-1.01-3.92c-0.44-1.13-0.98-2.03-1.64-2.69c-0.66-0.66-1.46-0.99-2.42-0.99
			c-0.92,0-1.71,0.26-2.36,0.77c-0.65,0.51-1.18,1.23-1.6,2.16c-0.42,0.92-0.73,2.03-0.93,3.33c-0.2,1.29-0.3,2.72-0.3,4.28
			c0,1.45,0.03,3.02,0.08,4.71c0.05,1.69,0.16,3.37,0.32,5.05c0.16,1.68,0.39,3.29,0.69,4.85c0.3,1.56,0.69,2.93,1.15,4.12
			c0.46,1.19,1.03,2.14,1.7,2.85C133.5,358.04,134.29,358.39,135.22,358.39z"/>
		<path class="st2" d="M229.73,352.3c0,1.08,0.15,1.93,0.44,2.53c0.29,0.61,0.65,1.06,1.07,1.37c0.42,0.3,0.89,0.52,1.41,0.63
			c0.52,0.12,0.98,0.24,1.41,0.38c0.42,0.13,0.78,0.32,1.07,0.57c0.29,0.25,0.44,0.67,0.44,1.25c0,3.01-1.56,5.18-4.67,6.51
			c-3.12,1.33-7.62,2-13.5,2c-1.58,0-2.97-0.12-4.16-0.36c-1.19-0.24-2.21-0.58-3.07-1.01c-0.86-0.44-1.56-0.96-2.12-1.58
			c-0.55-0.62-1-1.31-1.35-2.08c-0.69,0.63-1.52,1.31-2.51,2.02c-0.99,0.71-2.19,1.37-3.6,1.96c-1.41,0.59-3.04,1.08-4.87,1.46
			c-1.84,0.38-3.93,0.57-6.28,0.57c-2.67,0-5.02-0.37-7.07-1.11c-2.05-0.74-3.82-1.75-5.31-3.03c-1.49-1.28-2.74-2.78-3.74-4.49
			c-1-1.72-1.81-3.55-2.42-5.5c-0.61-1.95-1.04-3.97-1.29-6.06c-0.25-2.09-0.38-4.14-0.38-6.18c0-2.09,0.15-4.2,0.46-6.33
			c0.3-2.14,0.8-4.21,1.5-6.22c0.7-2.01,1.6-3.89,2.69-5.66c1.09-1.77,2.43-3.31,4-4.61c1.57-1.31,3.4-2.34,5.5-3.11
			c2.1-0.76,4.48-1.15,7.15-1.15c1.87,0,3.58,0.14,5.11,0.42c1.53,0.28,2.91,0.64,4.14,1.09c1.23,0.45,2.31,0.96,3.25,1.54
			c0.94,0.58,1.75,1.16,2.44,1.74v-11.92c0-1.08-0.14-1.91-0.42-2.47c-0.28-0.57-0.63-1-1.07-1.31c-0.44-0.3-0.9-0.51-1.39-0.61
			c-0.49-0.1-0.95-0.22-1.39-0.36c-0.44-0.13-0.79-0.32-1.07-0.57c-0.28-0.25-0.42-0.67-0.42-1.25c0-1.5,0.39-2.79,1.17-3.86
			c0.78-1.07,1.92-1.95,3.43-2.65c1.5-0.7,3.35-1.21,5.54-1.52c2.19-0.32,4.7-0.48,7.52-0.48c2.85,0,5.1,0.15,6.75,0.44
			c1.65,0.29,2.9,0.79,3.76,1.48c0.86,0.7,1.41,1.64,1.64,2.83c0.24,1.19,0.36,2.68,0.36,4.47L229.73,352.3z M199.72,358.47
			c1.06,0,2.1-0.18,3.13-0.55c1.03-0.37,1.93-0.78,2.69-1.23c-0.05-0.69-0.08-1.38-0.08-2.08c0-0.7,0-1.42,0-2.16v-25.06
			c-0.9-0.53-1.89-1.02-2.97-1.48c-1.08-0.46-2.19-0.69-3.33-0.69c-1.21,0-2.21,0.28-2.99,0.83c-0.78,0.55-1.39,1.48-1.84,2.79
			c-0.45,1.31-0.76,3.06-0.93,5.27c-0.17,2.2-0.26,4.94-0.26,8.22c0,1.98,0.06,3.93,0.2,5.86c0.13,1.93,0.42,3.65,0.87,5.17
			c0.45,1.52,1.11,2.75,1.98,3.7C197.07,358,198.24,358.47,199.72,358.47z"/>
	</g>
	<g>
		<path class="st2" d="M94.16,83.97c-0.03,0.03,9.99,5.59,10.06,5.81c11.8,6.76,19.82,19.74,19.82,34.33
			c0,9.51-3.41,18.21-9.03,24.99c-1.06,1.31-1.11,3.16-0.09,4.5c1.03,1.37,2.85,1.82,4.38,1.09c8.39-3.8,17.17-9.67,22.87-18.7
			c2.79-4.41,5.18-9.25,6.23-15.02c0.64-3.03,1.07-6.17,1.01-9.4c-0.75-27.28-17.28-35.54-19.43-37.1c-0.4-0.31-0.9-0.54-1.39-0.86
			c-0.47-0.31-13.29-7.46-13.37-7.66c-11.79-6.76-19.82-19.74-19.82-34.33c0-9.79,3.6-18.73,9.54-25.63
			c1.11-1.28,1.17-3.16,0.19-4.53c-1.01-1.37-2.86-1.82-4.41-1.15C88.54,5.82,75.09,16,71.04,34.82
			C66.36,56.45,77.1,75.02,94.16,83.97L94.16,83.97z"/>
		<path class="st2" d="M16.13,107.65c0,0,6.7,3.74,6.74,3.86c7.84,4.53,13.2,13.17,13.2,22.9c0,6.35-2.27,12.16-6.02,16.66
			c-0.74,0.88-0.75,2.13-0.07,3c0.68,0.87,1.89,1.18,2.93,0.76c5.6-2.55,11.41-6.48,15.24-12.53c1.85-2.93,3.46-6.15,4.17-10.01
			c0.41-2.03,0.72-4.1,0.66-6.24c-0.48-18.18-11.52-23.68-12.95-24.72c-0.28-0.22-0.58-0.34-0.92-0.54
			c-0.33-0.25-8.87-4.95-8.91-5.11c-7.84-4.5-13.23-13.17-13.23-22.9c0-6.51,2.4-12.5,6.35-17.09c0.76-0.86,0.81-2.13,0.12-3.03
			c-0.7-0.89-1.9-1.18-2.91-0.76c-8.13,3.67-17.11,10.46-19.8,23.02C-2.39,89.31,4.77,101.69,16.13,107.65L16.13,107.65z"/>
		<path class="st2" d="M192.38,107.65c0,0,6.65,3.74,6.71,3.86c7.84,4.53,13.22,13.17,13.22,22.9c0,6.35-2.27,12.16-6.04,16.66
			c-0.71,0.88-0.73,2.13-0.05,3c0.67,0.89,1.89,1.18,2.91,0.76c5.6-2.55,11.41-6.48,15.24-12.53c1.85-2.93,3.46-6.15,4.17-10.01
			c0.42-2.04,0.73-4.11,0.68-6.26c-0.5-18.18-11.54-23.68-12.95-24.72c-0.29-0.22-0.61-0.33-0.93-0.54
			c-0.33-0.25-8.86-4.95-8.89-5.11c-7.88-4.5-13.25-13.17-13.25-22.9c0-6.51,2.4-12.5,6.35-17.09c0.73-0.86,0.79-2.13,0.12-3.03
			c-0.7-0.89-1.92-1.18-2.93-0.76c-8.11,3.67-17.11,10.46-19.79,23.02C173.84,89.31,180.99,101.69,192.38,107.65L192.38,107.65z"/>
	</g>
</g>
<g>
	<g>
		<path class="st1" d="M-959.33,166.09h10.39c0.52,0,0.96,0.44,0.96,0.96v103.97c0,0.53-0.43,0.96-0.96,0.96h-10.39
			c-0.53-0.01-0.96-0.43-0.96-0.96V167.05C-960.29,166.53-959.86,166.09-959.33,166.09z"/>
		<path class="st1" d="M-887.92,251.64v2.62c0,1.14-0.17,2.7-0.61,4.72c-0.35,1.92-1.4,3.93-3.05,5.85
			c-1.66,1.92-4.1,3.67-7.42,5.06c-3.32,1.4-7.86,2.09-13.7,2.09c-5.85,0-10.39-0.7-13.7-2.09c-3.32-1.4-5.76-3.06-7.42-5.06
			c-1.66-1.92-2.71-3.93-3.06-5.94c-0.35-2.01-0.61-3.49-0.61-4.63v-59.19c0-0.53,0.44-0.96,0.96-0.96h10.39
			c0.52,0,0.96,0.43,0.96,0.96v55.43c0,1.83,0.26,3.14,0.53,4.19c0.26,1.05,0.78,2.09,1.57,2.97c0.79,0.96,2.01,1.75,3.67,2.36
			c1.57,0.61,3.75,0.96,6.46,0.96c2.79,0,5.06-0.35,6.72-0.96c1.66-0.61,2.88-1.4,3.76-2.27c0.87-0.87,1.48-1.83,1.75-2.88
			c0.26-1.05,0.61-1.92,0.61-4.45v-55.34c0-0.53,0.44-0.96,0.96-0.96h10.39c0.52,0,0.96,0.43,0.96,0.96v56.57L-887.92,251.64
			L-887.92,251.64z"/>
		<path class="st1" d="M-852.57,194.12h6.98c0.61,0,1.05,0.61,0.87,1.22l-2.36,9.08c-0.09,0.44-0.53,0.7-0.87,0.7h-4.89
			c-2.62,0-4.72,0.35-6.37,1.05c-1.57,0.7-2.88,1.48-3.75,2.44c-0.78,0.81-1.34,1.8-1.66,2.88c-0.26,1.05-0.35,2.01-0.35,2.88v56.74
			c0,0.53-0.43,0.96-0.96,0.96h-10.47c-0.53-0.01-0.96-0.43-0.96-0.96v-59.19c0-1.05,0.17-2.62,0.61-4.63
			c0.35-2.01,1.4-3.93,3.05-5.94c1.66-1.92,4.11-3.67,7.42-5.06C-863.04,194.81-858.42,194.12-852.57,194.12z"/>
		<path class="st1" d="M-976.61,199.09c-4.02-3.32-10.22-4.97-18.68-4.97c-4.37,0-8.12,0.52-11.17,1.4
			c-3.14,0.87-5.67,2.18-7.68,3.75c-2.09,1.57-3.58,3.49-4.45,5.59c-0.96,2.09-1.4,4.36-1.4,6.81v2.53
			c0.01,0.53,0.43,0.96,0.96,0.96h10.47c0.52,0,0.96-0.35,0.96-0.87c0.14-2.31,1.03-4.52,2.53-6.28c1.75-2.01,4.98-2.97,9.78-2.97
			c2.44,0,4.45,0.26,6.02,0.78c1.57,0.53,2.88,1.22,3.84,2.09c0.96,0.87,1.66,1.75,2.01,2.8c0.44,1.05,0.61,2.01,0.61,2.97v2.71
			c0,1.14-0.18,2.18-0.61,3.06c-0.43,0.79-0.87,1.57-1.48,2.27c-0.61,0.61-1.22,1.13-1.83,1.48c-0.61,0.35-1.13,0.61-1.48,0.79
			c-0.35,0.17-1.31,0.44-2.88,1.05c-1.57,0.52-3.32,1.22-5.41,1.92c-2.09,0.79-4.27,1.48-6.46,2.27c-2.27,0.79-4.19,1.4-5.94,2.01
			c-3.49,1.22-6.11,3.41-8.03,6.37c-1.83,2.97-2.79,6.29-2.79,9.96v6.81c0,1.66,0.35,3.58,0.96,5.67c0.61,2.01,1.83,3.93,3.67,5.68
			c1.83,1.75,4.37,3.23,7.51,4.36c3.14,1.14,7.25,1.75,12.4,1.75c5.06,0,9.25-0.61,12.4-1.75c3.14-1.22,5.67-2.62,7.5-4.36
			c1.83-1.66,3.06-3.58,3.67-5.67c0.61-2.01,0.96-3.93,0.96-5.67v-42.78C-970.68,206.6-972.69,202.41-976.61,199.09z
			 M-982.81,250.33c0,3.49-0.87,6.11-2.62,8.03c-1.75,1.83-5.06,2.79-9.86,2.79c-4.72,0-7.95-0.96-9.69-2.7
			c-1.75-1.83-2.62-4.54-2.62-8.21c0-1.83,0.35-3.32,1.04-4.54c0.7-1.22,1.49-2.18,2.36-2.97c1.01-0.81,2.13-1.49,3.32-2.01
			c1.48-0.61,3.14-1.13,4.89-1.75c1.48-0.43,3.06-1.05,4.72-1.66c1.66-0.61,3.23-1.14,4.71-1.66c0.7-0.26,1.4-0.53,2.18-1.05
			c0.78-0.48,1.32-1.28,1.48-2.18h0.09V250.33z"/>
		<path class="st1" d="M-796.7,199.09c-4.02-3.32-10.22-4.97-18.68-4.97c-4.37,0-8.03,0.52-11.18,1.4
			c-3.14,0.87-5.67,2.18-7.68,3.75c-2.09,1.57-3.58,3.49-4.45,5.59c-0.96,2.09-1.4,4.36-1.4,6.81v2.53
			c0.01,0.53,0.43,0.95,0.96,0.96h10.47c0.53,0,0.96-0.35,0.96-0.87c0.14-2.31,1.03-4.52,2.53-6.28c1.75-2.01,4.97-2.97,9.78-2.97
			c2.44,0,4.45,0.26,6.02,0.78c1.57,0.53,2.88,1.22,3.84,2.09c0.96,0.87,1.66,1.75,2.01,2.8c0.43,1.05,0.61,2.01,0.61,2.97v2.71
			c0,1.14-0.17,2.18-0.61,3.06c-0.44,0.79-0.87,1.57-1.48,2.27c-0.61,0.61-1.22,1.13-1.83,1.48c-0.61,0.35-1.13,0.61-1.48,0.79
			c-0.35,0.17-1.31,0.44-2.88,1.05c-1.57,0.52-3.32,1.22-5.41,1.92c-2.09,0.79-4.28,1.48-6.46,2.27c-2.27,0.79-4.19,1.4-5.94,2.01
			c-3.49,1.22-6.11,3.41-8.03,6.37c-1.83,2.97-2.79,6.29-2.79,9.96v6.81c0,1.66,0.35,3.58,0.96,5.67c0.61,2.01,1.83,3.93,3.67,5.68
			c1.83,1.75,4.37,3.23,7.51,4.36c3.14,1.14,7.25,1.75,12.4,1.75c5.06,0,9.25-0.61,12.39-1.75c3.14-1.22,5.67-2.62,7.51-4.36
			c1.83-1.66,3.05-3.58,3.67-5.67c0.61-2.01,0.96-3.93,0.96-5.67v-42.78C-790.76,206.6-792.77,202.41-796.7,199.09z M-802.9,250.33
			c0,3.49-0.87,6.11-2.62,8.03c-1.75,1.83-5.06,2.79-9.86,2.79c-4.72,0-7.95-0.96-9.69-2.7c-1.75-1.83-2.62-4.54-2.62-8.21
			c0-1.83,0.35-3.32,1.05-4.54c0.7-1.22,1.48-2.18,2.36-2.97c1.01-0.81,2.13-1.49,3.32-2.01c1.48-0.61,3.14-1.13,4.89-1.75
			c1.48-0.43,3.05-1.05,4.71-1.66c1.66-0.61,3.23-1.14,4.72-1.66c0.7-0.26,1.4-0.53,2.18-1.05c0.78-0.48,1.32-1.28,1.48-2.18h0.08
			V250.33z"/>
	</g>
	<g>
		<path class="st0" d="M-1013.98,316.22c0-1.9,0.18-3.77,0.55-5.6c0.37-1.83,0.95-3.58,1.74-5.23c0.79-1.65,1.81-3.18,3.07-4.59
			c1.25-1.41,2.77-2.63,4.55-3.64c1.78-1.02,3.83-1.82,6.16-2.4c2.32-0.58,4.96-0.87,7.92-0.87c2.72,0,5.29,0.22,7.72,0.65
			c2.43,0.44,4.55,1.15,6.38,2.14c1.82,0.99,3.27,2.3,4.34,3.92c1.07,1.62,1.6,3.61,1.6,5.96c0,0.74-0.14,1.55-0.42,2.44
			c-0.28,0.88-0.75,1.72-1.41,2.49c-0.66,0.78-1.54,1.43-2.63,1.96c-1.1,0.53-2.45,0.79-4.06,0.79c-1.72,0-3.16-0.22-4.33-0.67
			c-1.18-0.45-2.14-1.03-2.89-1.74c-0.75-0.71-1.29-1.51-1.62-2.4c-0.33-0.88-0.49-1.76-0.49-2.63c0-0.5,0.06-1.11,0.18-1.82
			c0.12-0.71,0.36-1.48,0.73-2.3c-1.11,0-2.03,0.05-2.75,0.16c-0.73,0.11-1.31,0.27-1.74,0.49c-0.44,0.22-0.75,0.49-0.93,0.81
			c-0.19,0.32-0.28,0.69-0.28,1.11c0,0.55,0.12,1.21,0.36,1.96c0.24,0.75,0.5,1.59,0.79,2.51c0.29,0.92,0.55,1.93,0.79,3.01
			c0.24,1.08,0.36,2.24,0.36,3.48h4.2c0.32,0,0.7,0.02,1.15,0.06c0.45,0.04,0.87,0.18,1.27,0.42c0.39,0.24,0.73,0.61,1.01,1.13
			c0.28,0.51,0.42,1.25,0.42,2.2c0,0.9-0.1,1.62-0.32,2.16c-0.21,0.54-0.48,0.95-0.81,1.23c-0.33,0.28-0.69,0.46-1.07,0.53
			c-0.38,0.08-0.75,0.12-1.09,0.12h-4.44v28.31c0,1.08,0.15,1.93,0.44,2.53c0.29,0.61,0.65,1.06,1.07,1.36
			c0.42,0.3,0.89,0.52,1.41,0.63c0.52,0.12,0.98,0.24,1.41,0.38c0.42,0.13,0.78,0.32,1.07,0.57c0.29,0.25,0.44,0.67,0.44,1.25
			c0,3.01-1.55,5.17-4.65,6.47c-3.1,1.31-7.6,1.96-13.48,1.96c-2.85,0-5.37-0.16-7.56-0.48c-2.19-0.32-4.04-0.81-5.54-1.48
			c-1.5-0.67-2.65-1.54-3.43-2.61c-0.78-1.07-1.17-2.36-1.17-3.86c0-0.58,0.15-1,0.44-1.25c0.29-0.25,0.65-0.44,1.07-0.57
			c0.42-0.13,0.88-0.25,1.39-0.36c0.5-0.1,0.96-0.31,1.39-0.61c0.42-0.3,0.78-0.74,1.07-1.31c0.29-0.57,0.44-1.39,0.44-2.47v-28.39
			h-1.94c-0.34,0-0.74-0.02-1.19-0.06c-0.45-0.04-0.87-0.19-1.27-0.46c-0.39-0.26-0.73-0.67-0.99-1.23c-0.26-0.55-0.4-1.35-0.4-2.38
			c0-0.95,0.14-1.68,0.42-2.2c0.28-0.51,0.61-0.89,1.01-1.13s0.82-0.38,1.27-0.42c0.45-0.04,0.83-0.06,1.15-0.06H-1013.98z"/>
		<path class="st0" d="M-950.43,368.53c-3.14,0-6.03-0.37-8.65-1.11c-2.63-0.74-4.99-1.75-7.09-3.03c-2.1-1.28-3.94-2.79-5.52-4.53
			c-1.58-1.74-2.9-3.62-3.96-5.64c-1.06-2.02-1.85-4.12-2.38-6.31c-0.53-2.19-0.79-4.38-0.79-6.57c0-2.24,0.28-4.45,0.85-6.63
			c0.57-2.18,1.43-4.24,2.57-6.2c1.15-1.95,2.58-3.75,4.3-5.38s3.73-3.05,6.04-4.24c2.31-1.19,4.91-2.12,7.8-2.79
			c2.89-0.67,6.08-1.01,9.56-1.01c3.06,0,5.87,0.34,8.41,1.03c2.55,0.69,4.85,1.63,6.91,2.83c2.06,1.2,3.86,2.62,5.41,4.26
			c1.54,1.64,2.83,3.42,3.86,5.35c1.03,1.93,1.8,3.96,2.32,6.1c0.52,2.14,0.77,4.29,0.77,6.45c0,2.24-0.28,4.49-0.83,6.73
			c-0.55,2.24-1.39,4.38-2.52,6.41c-1.12,2.03-2.53,3.92-4.22,5.66c-1.69,1.74-3.66,3.25-5.92,4.53c-2.26,1.28-4.8,2.28-7.62,3.01
			C-943.95,368.17-947.05,368.53-950.43,368.53z M-948.65,358.39c0.87,0,1.6-0.26,2.2-0.77c0.59-0.52,1.07-1.26,1.45-2.24
			c0.37-0.98,0.63-2.16,0.79-3.54c0.16-1.39,0.24-2.94,0.24-4.65c0-1.5-0.01-3.09-0.04-4.77c-0.03-1.68-0.09-3.33-0.2-4.95
			c-0.1-1.62-0.28-3.17-0.51-4.65c-0.24-1.48-0.57-2.78-1.01-3.92c-0.44-1.13-0.98-2.03-1.64-2.69c-0.66-0.66-1.46-0.99-2.42-0.99
			c-0.92,0-1.71,0.26-2.36,0.77c-0.65,0.51-1.18,1.23-1.6,2.16c-0.42,0.92-0.73,2.03-0.93,3.33c-0.2,1.29-0.3,2.72-0.3,4.28
			c0,1.45,0.03,3.02,0.08,4.71c0.05,1.69,0.16,3.37,0.32,5.05c0.16,1.68,0.39,3.29,0.69,4.85c0.3,1.56,0.69,2.93,1.15,4.12
			c0.46,1.19,1.03,2.14,1.7,2.85C-950.37,358.04-949.57,358.39-948.65,358.39z"/>
		<path class="st0" d="M-886.56,368.53c-3.14,0-6.03-0.37-8.65-1.11c-2.63-0.74-4.99-1.75-7.09-3.03c-2.1-1.28-3.94-2.79-5.52-4.53
			c-1.58-1.74-2.9-3.62-3.96-5.64c-1.06-2.02-1.85-4.12-2.38-6.31c-0.53-2.19-0.79-4.38-0.79-6.57c0-2.24,0.28-4.45,0.85-6.63
			c0.57-2.18,1.43-4.24,2.57-6.2c1.15-1.95,2.58-3.75,4.3-5.38s3.73-3.05,6.04-4.24c2.31-1.19,4.91-2.12,7.8-2.79
			c2.89-0.67,6.08-1.01,9.56-1.01c3.06,0,5.87,0.34,8.41,1.03c2.55,0.69,4.85,1.63,6.91,2.83c2.06,1.2,3.86,2.62,5.41,4.26
			c1.54,1.64,2.83,3.42,3.86,5.35c1.03,1.93,1.8,3.96,2.32,6.1c0.52,2.14,0.77,4.29,0.77,6.45c0,2.24-0.28,4.49-0.83,6.73
			c-0.55,2.24-1.39,4.38-2.52,6.41c-1.12,2.03-2.53,3.92-4.22,5.66c-1.69,1.74-3.66,3.25-5.92,4.53c-2.26,1.28-4.8,2.28-7.62,3.01
			C-880.08,368.17-883.18,368.53-886.56,368.53z M-884.78,358.39c0.87,0,1.6-0.26,2.2-0.77c0.59-0.52,1.07-1.26,1.45-2.24
			c0.37-0.98,0.63-2.16,0.79-3.54c0.16-1.39,0.24-2.94,0.24-4.65c0-1.5-0.01-3.09-0.04-4.77c-0.03-1.68-0.09-3.33-0.2-4.95
			c-0.1-1.62-0.28-3.17-0.51-4.65c-0.24-1.48-0.57-2.78-1.01-3.92c-0.44-1.13-0.98-2.03-1.64-2.69c-0.66-0.66-1.46-0.99-2.42-0.99
			c-0.92,0-1.71,0.26-2.36,0.77c-0.65,0.51-1.18,1.23-1.6,2.16c-0.42,0.92-0.73,2.03-0.93,3.33c-0.2,1.29-0.3,2.72-0.3,4.28
			c0,1.45,0.03,3.02,0.08,4.71c0.05,1.69,0.16,3.37,0.32,5.05c0.16,1.68,0.39,3.29,0.69,4.85c0.3,1.56,0.69,2.93,1.15,4.12
			c0.46,1.19,1.03,2.14,1.7,2.85C-886.5,358.04-885.71,358.39-884.78,358.39z"/>
		<path class="st0" d="M-790.27,352.3c0,1.08,0.15,1.93,0.44,2.53c0.29,0.61,0.65,1.06,1.07,1.37c0.42,0.3,0.89,0.52,1.41,0.63
			c0.52,0.12,0.98,0.24,1.41,0.38c0.42,0.13,0.78,0.32,1.07,0.57c0.29,0.25,0.44,0.67,0.44,1.25c0,3.01-1.56,5.18-4.67,6.51
			c-3.12,1.33-7.62,2-13.5,2c-1.58,0-2.97-0.12-4.16-0.36c-1.19-0.24-2.21-0.58-3.07-1.01c-0.86-0.44-1.56-0.96-2.12-1.58
			c-0.55-0.62-1-1.31-1.35-2.08c-0.69,0.63-1.52,1.31-2.51,2.02c-0.99,0.71-2.19,1.37-3.6,1.96c-1.41,0.59-3.04,1.08-4.87,1.46
			c-1.84,0.38-3.93,0.57-6.28,0.57c-2.67,0-5.02-0.37-7.07-1.11c-2.05-0.74-3.82-1.75-5.31-3.03c-1.49-1.28-2.74-2.78-3.74-4.49
			c-1-1.72-1.81-3.55-2.42-5.5c-0.61-1.95-1.04-3.97-1.29-6.06c-0.25-2.09-0.38-4.14-0.38-6.18c0-2.09,0.15-4.2,0.46-6.33
			c0.3-2.14,0.8-4.21,1.5-6.22c0.7-2.01,1.6-3.89,2.69-5.66c1.09-1.77,2.43-3.31,4-4.61c1.57-1.31,3.4-2.34,5.5-3.11
			c2.1-0.76,4.48-1.15,7.15-1.15c1.87,0,3.58,0.14,5.11,0.42c1.53,0.28,2.91,0.64,4.14,1.09c1.23,0.45,2.31,0.96,3.25,1.54
			c0.94,0.58,1.75,1.16,2.44,1.74v-11.92c0-1.08-0.14-1.91-0.42-2.47c-0.28-0.57-0.63-1-1.07-1.31c-0.44-0.3-0.9-0.51-1.39-0.61
			c-0.49-0.1-0.95-0.22-1.39-0.36c-0.44-0.13-0.79-0.32-1.07-0.57c-0.28-0.25-0.42-0.67-0.42-1.25c0-1.5,0.39-2.79,1.17-3.86
			s1.92-1.95,3.43-2.65c1.5-0.7,3.35-1.21,5.54-1.52c2.19-0.32,4.7-0.48,7.52-0.48c2.85,0,5.1,0.15,6.75,0.44
			c1.65,0.29,2.9,0.79,3.76,1.48c0.86,0.7,1.41,1.64,1.64,2.83c0.24,1.19,0.36,2.68,0.36,4.47L-790.27,352.3z M-820.28,358.47
			c1.06,0,2.1-0.18,3.13-0.55c1.03-0.37,1.93-0.78,2.69-1.23c-0.05-0.69-0.08-1.38-0.08-2.08c0-0.7,0-1.42,0-2.16v-25.06
			c-0.9-0.53-1.89-1.02-2.97-1.48c-1.08-0.46-2.19-0.69-3.33-0.69c-1.21,0-2.21,0.28-2.99,0.83c-0.78,0.55-1.39,1.48-1.84,2.79
			c-0.45,1.31-0.76,3.06-0.93,5.27c-0.17,2.2-0.26,4.94-0.26,8.22c0,1.98,0.06,3.93,0.2,5.86c0.13,1.93,0.42,3.65,0.87,5.17
			c0.45,1.52,1.11,2.75,1.98,3.7C-822.93,358-821.76,358.47-820.28,358.47z"/>
	</g>
	<g>
		<path class="st0" d="M-925.84,83.97c-0.03,0.03,9.99,5.59,10.06,5.81c11.8,6.76,19.82,19.74,19.82,34.33
			c0,9.51-3.41,18.21-9.03,24.99c-1.06,1.31-1.11,3.16-0.09,4.5c1.03,1.37,2.85,1.82,4.38,1.09c8.39-3.8,17.17-9.67,22.87-18.7
			c2.79-4.41,5.18-9.25,6.23-15.02c0.64-3.03,1.07-6.17,1.01-9.4c-0.75-27.28-17.28-35.54-19.43-37.1c-0.4-0.31-0.9-0.54-1.39-0.86
			c-0.47-0.31-13.29-7.46-13.37-7.66c-11.79-6.76-19.82-19.74-19.82-34.33c0-9.79,3.6-18.73,9.54-25.63
			c1.11-1.28,1.17-3.16,0.19-4.53c-1.01-1.37-2.86-1.82-4.41-1.15c-12.17,5.51-25.62,15.69-29.67,34.52
			C-953.64,56.45-942.9,75.02-925.84,83.97L-925.84,83.97z"/>
		<path class="st0" d="M-1003.87,107.65c0,0,6.7,3.74,6.74,3.86c7.84,4.53,13.2,13.17,13.2,22.9c0,6.35-2.27,12.16-6.02,16.66
			c-0.74,0.88-0.75,2.13-0.07,3c0.68,0.87,1.89,1.18,2.93,0.76c5.6-2.55,11.41-6.48,15.24-12.53c1.85-2.93,3.46-6.15,4.17-10.01
			c0.41-2.03,0.72-4.1,0.66-6.24c-0.48-18.18-11.52-23.68-12.95-24.72c-0.28-0.22-0.58-0.34-0.92-0.54
			c-0.33-0.25-8.87-4.95-8.91-5.11c-7.84-4.5-13.23-13.17-13.23-22.9c0-6.51,2.4-12.5,6.35-17.09c0.76-0.86,0.81-2.13,0.12-3.03
			c-0.7-0.89-1.9-1.18-2.91-0.76c-8.13,3.67-17.11,10.46-19.8,23.02C-1022.39,89.31-1015.23,101.69-1003.87,107.65L-1003.87,107.65z
			"/>
		<path class="st0" d="M-827.62,107.65c0,0,6.65,3.74,6.71,3.86c7.84,4.53,13.22,13.17,13.22,22.9c0,6.35-2.27,12.16-6.04,16.66
			c-0.71,0.88-0.73,2.13-0.05,3c0.67,0.89,1.89,1.18,2.91,0.76c5.6-2.55,11.41-6.48,15.24-12.53c1.85-2.93,3.46-6.15,4.17-10.01
			c0.42-2.04,0.73-4.11,0.68-6.26c-0.5-18.18-11.54-23.68-12.95-24.72c-0.29-0.22-0.61-0.33-0.93-0.54
			c-0.33-0.25-8.86-4.95-8.89-5.11c-7.88-4.5-13.25-13.17-13.25-22.9c0-6.51,2.4-12.5,6.35-17.09c0.73-0.86,0.79-2.13,0.12-3.03
			c-0.7-0.89-1.92-1.18-2.93-0.76c-8.11,3.67-17.11,10.46-19.79,23.02C-846.16,89.31-839.01,101.69-827.62,107.65L-827.62,107.65z"
			/>
	</g>
</g>
</svg>
